<svg xmlns="http://www.w3.org/2000/svg" viewBox="0 0 48 48" id="teacher"><path d="M29.5 9.5C29.5 6.47 27.03 4 24 4s-5.5 2.47-5.5 5.5S20.97 15 24 15s5.5-2.47 5.5-5.5zM24 12a2.5 2.5 0 0 1 0-5 2.5 2.5 0 0 1 0 5zm20 11H31.5v-2.5c0-3.03-2.47-5.5-5.5-5.5h-4a5.51 5.51 0 0 0-5.5 5.5V23H4c-.83 0-1.5.67-1.5 1.5v5c0 .83.67 1.5 1.5 1.5h.5v11.5c0 .83.67 1.5 1.5 1.5h36c.83 0 1.5-.67 1.5-1.5V31h.5c.83 0 1.5-.67 1.5-1.5v-5c0-.83-.67-1.5-1.5-1.5zm-24.5-2.5A2.5 2.5 0 0 1 22 18h4a2.5 2.5 0 0 1 2.5 2.5V23h-9v-2.5zm21 20.5h-33V31h33v10zm2-13h-37v-2h37v2z"></path></svg>